<svg xmlns="http://www.w3.org/2000/svg" version="1.1" xmlns:xlink="http://www.w3.org/1999/xlink" width="1500" height="338" viewBox="0 0 1500 338"><svg xml:space="preserve" width="1500" height="338" data-version="2" data-id="lg_jNBfeFDHJZv3o6Oyfs" viewBox="0 0 601 338" x="0" y="0"><rect width="100%" height="100%" fill="transparent"></rect><path fill="#152232" d="M151.05 80.1q2.62.98 5.61 1.74t5.99 1.25q2.99.49 5.88.87 2.88.38 5.17.49 4.14-12.63 10.35-23.52 6.2-10.89 13.55-19.81 7.35-8.93 15.46-15.79 8.12-6.86 16.12-11.6 8-4.74 15.46-7.13 7.46-2.4 13.67-2.4 7.94 0 12.79 4.14 4.85 4.14 4.85 12.85 0 5.12-2.89 11.43-2.89 6.32-8.22 13.01-5.34 6.7-12.96 13.45-7.62 6.75-17.15 12.8-9.53 6.04-20.8 10.99-11.26 4.96-23.79 8.01-4.9 13.28-10.12 27.06-5.23 13.77-11.11 27.43-5.88 13.67-12.69 26.74-6.8 13.06-15.08 24.93 9.7 8.6 19.22 16.93 9.53 8.33 19.44 14.87 9.91 6.53 20.47 10.5 10.56 3.98 22.32 3.98 12.85 0 27.44-5.66 14.59-5.67 31.69-18.95 11.54-7.62 19.16-11.22 7.62-3.59 11.11-3.59 2.72 0 2.72 2.07 0 2.94-6.26 9.85-6.26 6.92-19.76 17.48-9.15 7.4-17.48 12.63t-16.12 8.49q-7.78 3.27-14.97 4.8-7.18 1.52-13.83 1.52-13.17 0-24.93-5.06-11.76-5.07-22.76-13.12-11-8.06-21.72-18.08-10.73-10.02-21.83-20.03-7.19 8.49-15.36 15.51-8.16 7.03-17.47 12.09-9.31 5.06-19.82 7.84-10.51 2.77-22.38 2.77-13.72 0-23.84-3.91-10.13-3.92-16.72-10.35-6.58-6.42-9.8-14.64-3.21-8.23-3.21-16.72 0-8.38 3.05-16.44t8.93-14.32q5.88-6.26 14.59-10.07 8.71-3.81 20.03-3.81 11.11 0 21.02 2.61t19.06 7.02q9.14 4.41 17.53 10.29 8.38 5.88 16.33 12.42 6.31-10.78 12.14-22.49 5.83-11.7 11.32-23.79 5.5-12.09 10.78-24.28 5.28-12.2 10.51-23.96-2.29 0-5.12-.16t-5.88-.38q-3.05-.22-6.04-.6t-5.61-.93q-4.9-.87-10.07-1.25t-9.74-1.52q-4.58-1.15-8.23-3.6-3.64-2.45-5.6-7.35-.87-2.06-.87-4.02 0-1.53.65-3.05.65-1.53 1.9-2.78 1.26-1.25 2.94-2.01 1.69-.77 3.76-.77 3.38 0 7.19 2.07 3.81 2.07 7.51 5.01 3.7 2.94 6.97 6.04 3.27 3.11 5.55 5.18M58.83 234.39q10.45 0 19.38-3.05t16.66-8.49q7.73-5.45 14.37-13.01 6.64-7.57 12.52-16.61-7.62-5.99-15.73-11.21-8.11-5.23-16.93-9.15t-18.46-6.15q-9.64-2.24-20.42-2.24-6.42 0-11.27 2.73-4.84 2.72-8.11 7.18-3.26 4.47-4.95 10.24-1.69 5.77-1.69 11.98 0 6.86 2.12 13.66 2.13 6.81 6.37 12.14 4.25 5.34 10.78 8.66 6.54 3.32 15.36 3.32M192.43 82.6q10.56-3.59 20.09-8.98 9.53-5.39 17.64-11.6 8.11-6.2 14.64-12.85 6.54-6.64 11.17-12.85 4.62-6.2 7.07-11.48t2.45-8.77q0-4.9-5.01-4.9-3.59 0-9.25 2.62-5.66 2.61-12.25 7.4-6.59 4.79-13.61 11.38-7.03 6.59-13.34 14.53-6.32 7.95-11.49 16.94-5.17 8.98-8.11 18.56"></path><path fill="#152232" d="M391.26 171.67q-6.1 3.59-11.82 7.02-5.71 3.43-11.48 7.24-5.78 3.82-11.82 8.17-6.04 4.36-12.68 9.8-5.45 14.16-11.82 29.29-6.37 15.14-13.39 29.56-7.02 14.43-14.65 27.34-7.62 12.9-15.62 22.59-8.01 9.69-16.23 15.41-8.22 5.71-16.38 5.71-4.14 0-7.08-.98-2.94-.98-4.9-2.61-1.96-1.63-2.89-3.65-.92-2.01-.92-4.08 0-3.16 1.85-9.2 1.85-6.05 5.99-14.21 4.14-8.17 10.72-18.29 6.59-10.13 15.95-21.62 9.37-11.49 21.73-24.01 12.36-12.52 28.14-25.59 6.32-14.7 10.78-24.71 4.47-10.02 7.46-16.66 3-6.65 4.74-10.62 1.74-3.97 2.72-6.59-4.57 5.88-10.89 12.74-6.31 6.86-13.88 13.72-7.57 6.86-16.11 13.18-8.55 6.31-17.59 11.16-9.04 4.84-18.35 7.78-9.31 2.94-18.34 2.94-5.23 0-7.19-2.77-1.96-2.78-1.96-7.46 0-4.25 1.47-10.07 1.47-5.83 3.76-12.42 2.28-6.58 5.17-13.5 2.88-6.91 5.71-13.34 2.84-6.42 5.28-11.87 2.45-5.44 3.98-9.14-4.9 3.15-12.36 7.56-7.46 4.41-16.39 9.59-8.93 5.17-18.89 10.94t-19.87 11.65q-1.52.87-2.72.87-1.31 0-2.13-.81-.81-.82-.81-2.13 0-1.52 1.25-3.32 1.25-1.8 4.41-3.65 14.26-8.38 24.99-14.75 10.72-6.37 18.67-11.05 7.95-4.69 13.51-7.84 5.55-3.16 9.47-5.01 3.92-1.85 6.53-2.67 2.61-.82 4.79-.82 3.27 0 5.34 1.37 2.07 1.36 3.32 3.48t1.69 4.57q.43 2.45.43 4.74 0 4.68-2.34 10.83-2.34 6.16-5.82 12.8-3.49 6.64-7.52 13.39-4.03 6.75-7.51 12.74-3.49 5.99-5.83 10.67t-2.34 7.19q0 2.5 2.51 2.5 3.92 0 10.18-2.67 6.26-2.66 13.88-7.29 7.62-4.63 16.12-10.89 8.49-6.26 16.87-13.45 8.39-7.18 16.17-14.91 7.79-7.74 14.1-15.47.44-.65.6-2.34.17-1.69.87-3.48.71-1.8 2.29-3.16t4.85-1.36q2.72 0 4.35.65 1.64.66 2.45 1.8.82 1.14 1.04 2.72.21 1.58.21 3.54 0-.22-.1-.22-.22 0-1.64 3.98-1.41 3.97-3.75 10.99-2.35 7.03-5.67 16.61-3.32 9.58-7.46 20.8 9.91-7.19 20.42-14.1 10.51-6.92 22.38-13.89.65-.32 1.3-.32 1.2 0 2.24.98 1.03.98 1.03 2.5 0 1.31-1.03 2.83-1.04 1.53-3.54 3.05m-97.67 78.73q-3.71 3.92-7.74 10.01-4.02 6.1-7.94 13.12-3.92 7.03-7.52 14.38-3.59 7.35-6.26 13.77-2.67 6.43-4.24 11.38-1.58 4.95-1.58 7.13 0 2.51 2.39 2.51 2.83 0 6.04-2.67 3.22-2.67 6.65-7.19 3.43-4.52 7.02-10.45 3.59-5.94 7.19-12.58 3.59-6.64 7.13-13.55 3.54-6.92 6.8-13.23 4.14-9.91 7.68-18.51 3.54-8.61 6.81-16.23-10.24 9.58-22.43 22.11"></path><path fill="#152232" d="M413.81 192.58q0-3.71.38-8.11.38-4.41.98-9.26t1.47-9.8q.87-4.95 1.85-9.75l-27.22 16.01q-1.09.76-2.4.76-1.31 0-2.23-.87-.93-.87-.93-2.18 0-1.52 1.26-3.21 1.25-1.69 4.3-3.54l28.31-17.75q1.74-5 5.01-13.5 3.26-8.49 8.05-18.83 4.79-10.35 11.11-21.89 6.32-11.54 14.26-22.87 7.95-11.32 17.43-21.61 9.47-10.29 20.52-18.13 11.05-7.84 23.74-12.47 12.68-4.63 27.06-4.63 12.19 0 21.23 1.69 9.04 1.69 14.92 4.74 5.88 3.05 8.76 7.13 2.89 4.08 2.89 8.87 0 7.52-6.48 15.74t-19.33 16.06l-123.91 76.33-6.53 41.92q5.55-3.37 11.1-6.8 5.56-3.43 10.51-6.59 4.95-3.16 9.04-5.83 4.08-2.67 6.59-4.52 1.19-1.09 3.21-2.5 2.01-1.42 4.57-2.61 2.56-1.2 5.5-2.07 2.94-.87 6.1-.87 2.28 0 4.57.49 2.29.49 4.08 2.23 1.8 1.74 2.94 5.01 1.15 3.26 1.15 8.82v28.09q1.09-.65 4.08-2.45 2.99-1.8 7.24-4.3 4.25-2.51 9.31-5.45 5.06-2.94 10.18-5.88l26.35-15.57q2.29-1.3 3.92-1.3 2.51 0 2.51 2.5 0 1.74-1.47 3.76-1.47 2.01-4.96 4.08-11.98 7.08-22.92 13.5-10.94 6.43-19.82 11.44-8.87 5-15.08 8.11-6.2 3.1-8.71 3.54-1.2.21-2.5.32-1.31.11-2.62.11-3.92 0-6.36-1.03-2.45-1.04-3.82-2.83-1.36-1.8-1.85-4.09-.49-2.28-.49-4.9 0-2.5.93-5.28.92-2.77 1.36-6.15l3.05-23.85q-16.44 11.55-30.05 20.48-4.8 3.81-9.48 7.29-4.68 3.48-8.55 6.21-3.86 2.72-6.69 4.3-2.83 1.58-3.81 1.58-2.07 0-4.47-.22-2.39-.22-4.41-1.04-2.01-.81-3.37-2.39-1.36-1.58-1.36-4.19m32.99-65.01q13.72-9.25 28.53-19.11 14.81-9.85 30-19.54t30.27-19q15.08-9.31 29.34-17.48 8.28-6.21 12.74-11.54 4.47-5.34 4.47-9.58 0-5.45-8.28-8.66t-26.24-3.21q-8.39 0-16.77 3.21-8.38 3.21-16.5 8.76-8.11 5.56-15.73 13.02-7.62 7.46-14.48 15.95-6.86 8.49-12.85 17.58-5.99 9.1-10.84 17.92-4.84 8.82-8.33 16.98-3.48 8.17-5.33 14.7"></path></svg></svg>